<svg xmlns="http://www.w3.org/2000/svg" width="14" height="4" fill="none" viewBox="0 0 14 4"><path fill="url(#a)" d="M1.464 3.072q-.388 0-.704-.156a1.2 1.2 0 0 1-.496-.472Q.08 2.132.08 1.68q0-.344.112-.604T.496.64Q.692.465.944.376q.255-.088.54-.088a1.6 1.6 0 0 1 .78.196l.016.492h-.04l-.2-.32A1 1 0 0 0 1.952.52a.3.3 0 0 0-.12-.096.5.5 0 0 0-.12-.04.77.77 0 0 0-.568.108Q.956.616.84.904q-.112.285-.112.78 0 .492.108.78.108.284.292.408.187.12.42.12.127 0 .204-.016a1 1 0 0 0 .152-.056.25.25 0 0 0 .116-.092q.04-.064.072-.136l.176-.392h.04l-.012.572a1.75 1.75 0 0 1-.832.2m2.038-.012q-.304 0-.528-.124a.9.9 0 0 1-.348-.36 1.2 1.2 0 0 1-.12-.544q0-.312.128-.54a.9.9 0 0 1 .356-.352q.228-.124.512-.124t.508.124q.225.12.352.348.132.228.132.544 0 .315-.124.548a.87.87 0 0 1-.344.356 1.05 1.05 0 0 1-.524.124m0-.08a.3.3 0 0 0 .224-.08q.084-.08.12-.284.04-.204.04-.576 0-.375-.04-.58-.036-.203-.12-.284a.3.3 0 0 0-.224-.08.33.33 0 0 0-.228.08q-.084.08-.124.284-.036.205-.036.58 0 .372.036.576.04.204.124.284.089.08.228.08m2.203.08q-.303 0-.528-.124a.9.9 0 0 1-.348-.36 1.2 1.2 0 0 1-.12-.544q0-.312.128-.54a.9.9 0 0 1 .356-.352q.228-.124.512-.124t.508.124q.225.12.352.348.132.228.132.544 0 .315-.124.548a.87.87 0 0 1-.344.356 1.05 1.05 0 0 1-.524.124m0-.08a.3.3 0 0 0 .224-.08q.084-.08.12-.284.04-.204.04-.576 0-.375-.04-.58-.036-.203-.12-.284a.3.3 0 0 0-.224-.08.33.33 0 0 0-.228.08q-.084.08-.124.284-.036.205-.036.58 0 .372.036.576.04.204.124.284.088.08.228.08m1.16.02v-.04l.06-.02q.136-.045.136-.196V.604q0-.08-.032-.12A.22.22 0 0 0 6.917.42L6.865.408v-.04l.732-.172.048.036-.012.56v1.952q0 .16.132.2l.056.016V3zM8.35 3l-.712-1 .74-.684a.18.18 0 0 0 .06-.1q.012-.056-.068-.08l-.068-.02v-.04h.596v.04l-.12.032a.5.5 0 0 0-.144.068 1 1 0 0 0-.128.104l-.448.42.716.996a.8.8 0 0 0 .12.136.5.5 0 0 0 .144.08l.016.008V3zm4.454-1.984q.26 0 .444.108.183.104.28.288.1.18.1.412 0 .044-.004.092a.4.4 0 0 1-.016.08h-1.192q.003.432.152.624.151.188.448.188a.7.7 0 0 0 .324-.064.8.8 0 0 0 .232-.188l.04.036a.9.9 0 0 1-.332.344.93.93 0 0 1-.492.124q-.285 0-.504-.12a.87.87 0 0 1-.344-.352 1.1 1.1 0 0 1-.124-.544q0-.328.144-.556a.97.97 0 0 1 .368-.352q.228-.12.476-.12m-.012.08a.3.3 0 0 0-.2.072q-.08.068-.128.248-.045.176-.048.5h.684q.04-.435-.032-.628a.27.27 0 0 0-.276-.192"/><path fill="url(#b)" d="M1.464 3.072q-.388 0-.704-.156a1.2 1.2 0 0 1-.496-.472Q.08 2.132.08 1.68q0-.344.112-.604T.496.64Q.692.465.944.376q.255-.088.54-.088a1.6 1.6 0 0 1 .78.196l.016.492h-.04l-.2-.32A1 1 0 0 0 1.952.52a.3.3 0 0 0-.12-.096.5.5 0 0 0-.12-.04.77.77 0 0 0-.568.108Q.956.616.84.904q-.112.285-.112.78 0 .492.108.78.108.284.292.408.187.12.42.12.127 0 .204-.016a1 1 0 0 0 .152-.056.25.25 0 0 0 .116-.092q.04-.064.072-.136l.176-.392h.04l-.012.572a1.75 1.75 0 0 1-.832.2m2.038-.012q-.304 0-.528-.124a.9.9 0 0 1-.348-.36 1.2 1.2 0 0 1-.12-.544q0-.312.128-.54a.9.9 0 0 1 .356-.352q.228-.124.512-.124t.508.124q.225.12.352.348.132.228.132.544 0 .315-.124.548a.87.87 0 0 1-.344.356 1.05 1.05 0 0 1-.524.124m0-.08a.3.3 0 0 0 .224-.08q.084-.08.12-.284.04-.204.04-.576 0-.375-.04-.58-.036-.203-.12-.284a.3.3 0 0 0-.224-.08.33.33 0 0 0-.228.08q-.084.08-.124.284-.036.205-.036.58 0 .372.036.576.04.204.124.284.089.08.228.08m2.203.08q-.303 0-.528-.124a.9.9 0 0 1-.348-.36 1.2 1.2 0 0 1-.12-.544q0-.312.128-.54a.9.9 0 0 1 .356-.352q.228-.124.512-.124t.508.124q.225.12.352.348.132.228.132.544 0 .315-.124.548a.87.87 0 0 1-.344.356 1.05 1.05 0 0 1-.524.124m0-.08a.3.3 0 0 0 .224-.08q.084-.08.12-.284.04-.204.04-.576 0-.375-.04-.58-.036-.203-.12-.284a.3.3 0 0 0-.224-.08.33.33 0 0 0-.228.08q-.084.08-.124.284-.036.205-.036.58 0 .372.036.576.04.204.124.284.088.08.228.08m1.16.02v-.04l.06-.02q.136-.045.136-.196V.604q0-.08-.032-.12A.22.22 0 0 0 6.917.42L6.865.408v-.04l.732-.172.048.036-.012.56v1.952q0 .16.132.2l.056.016V3zM8.35 3l-.712-1 .74-.684a.18.18 0 0 0 .06-.1q.012-.056-.068-.08l-.068-.02v-.04h.596v.04l-.12.032a.5.5 0 0 0-.144.068 1 1 0 0 0-.128.104l-.448.42.716.996a.8.8 0 0 0 .12.136.5.5 0 0 0 .144.08l.016.008V3zm4.454-1.984q.26 0 .444.108.183.104.28.288.1.18.1.412 0 .044-.004.092a.4.4 0 0 1-.016.08h-1.192q.003.432.152.624.151.188.448.188a.7.7 0 0 0 .324-.064.8.8 0 0 0 .232-.188l.04.036a.9.9 0 0 1-.332.344.93.93 0 0 1-.492.124q-.285 0-.504-.12a.87.87 0 0 1-.344-.352 1.1 1.1 0 0 1-.124-.544q0-.328.144-.556a.97.97 0 0 1 .368-.352q.228-.12.476-.12m-.012.08a.3.3 0 0 0-.2.072q-.08.068-.128.248-.045.176-.048.5h.684q.04-.435-.032-.628a.27.27 0 0 0-.276-.192"/><defs><linearGradient id="a" x1="0" x2="14" y1="1.5" y2="1.5" gradientUnits="userSpaceOnUse"><stop stop-color="#fff"/><stop offset="1" stop-color="#999"/></linearGradient><linearGradient id="b" x1="0" x2="14" y1="1.5" y2="1.5" gradientUnits="userSpaceOnUse"><stop stop-color="#FF3CAC"/><stop offset="0.52" stop-color="#562B7C"/><stop offset="1" stop-color="#2B86C5"/></linearGradient></defs></svg>