<?xml version="1.0" encoding="UTF-8" standalone="no"?>
<svg
   width="40"
   height="40"
   viewBox="0 0 40 40"
   fill="none"
   version="1.1"
   id="svg1"
   sodipodi:docname="burger.svg"
   inkscape:version="1.3.2 (091e20e, 2023-11-25, custom)"
   xmlns:inkscape="http://www.inkscape.org/namespaces/inkscape"
   xmlns:sodipodi="http://sodipodi.sourceforge.net/DTD/sodipodi-0.dtd"
   xmlns="http://www.w3.org/2000/svg"
   xmlns:svg="http://www.w3.org/2000/svg">
  <defs
     id="defs1" />
  <sodipodi:namedview
     id="namedview1"
     pagecolor="#ffffff"
     bordercolor="#000000"
     borderopacity="0.25"
     inkscape:showpageshadow="2"
     inkscape:pageopacity="0.0"
     inkscape:pagecheckerboard="0"
     inkscape:deskcolor="#d1d1d1"
     inkscape:zoom="20.775"
     inkscape:cx="19.975933"
     inkscape:cy="20"
     inkscape:window-width="1680"
     inkscape:window-height="1027"
     inkscape:window-x="1912"
     inkscape:window-y="-8"
     inkscape:window-maximized="1"
     inkscape:current-layer="svg1" />
  <path
     style="color:#000000;fill:#999999;stroke-linecap:round;stroke-linejoin:round;-inkscape-stroke:none"
     d="M 11,12.75 A 1.25,1.25 0 0 0 9.75,14 1.25,1.25 0 0 0 11,15.25 H 29 A 1.25,1.25 0 0 0 30.25,14 1.25,1.25 0 0 0 29,12.75 Z m 0,6 A 1.25,1.25 0 0 0 9.75,20 1.25,1.25 0 0 0 11,21.25 H 29 A 1.25,1.25 0 0 0 30.25,20 1.25,1.25 0 0 0 29,18.75 Z m 0,6 A 1.25,1.25 0 0 0 9.75,26 1.25,1.25 0 0 0 11,27.25 H 29 A 1.25,1.25 0 0 0 30.25,26 1.25,1.25 0 0 0 29,24.75 Z"
     id="path1" />
</svg>
