<svg aria-hidden="true" style="position: absolute; width: 0; height: 0; overflow: hidden;" version="1.1" xmlns="http://www.w3.org/2000/svg" xmlns:xlink="http://www.w3.org/1999/xlink">
<defs>
<symbol id="icon-burger" viewBox="0 0 32 32">
<path d="M8.8 10.2c-0.552 0-1 0.448-1 1v0c0 0.552 0.448 1 1 1v0h14.4c0.552 0 1-0.448 1-1v0c0-0.552-0.448-1-1-1v0zM8.8 15c-0.552 0-1 0.448-1 1v0c0 0.552 0.448 1 1 1v0h14.4c0.552 0 1-0.448 1-1v0c0-0.552-0.448-1-1-1v0zM8.8 19.8c-0.552 0-1 0.448-1 1v0c0 0.552 0.448 1 1 1v0h14.4c0.552 0 1-0.448 1-1v0c0-0.552-0.448-1-1-1v0z"></path>
</symbol>
<symbol id="icon-cross" viewBox="0 0 32 32">
<path d="M6.966 5.834l-1.131 1.131 9.034 9.034-9.034 9.034 1.131 1.131 9.034-9.034 9.034 9.034 1.131-1.131-9.034-9.034 9.034-9.034-1.131-1.131-9.034 9.034z"></path>
</symbol>
</defs>
</svg>
